HIERARCHY
ROOT Hips
{
  OFFSET -77.2288 98.3838 -105.889
  CHANNELS 6 Xposition Yposition Zposition Zrotation Xrotation Yrotation
  JOINT ToSpine
  {
    OFFSET -2.69724 7.43032 -0.144315
    CHANNELS 3 Zrotation Xrotation Yrotation
    JOINT Spine
    {
      OFFSET -0.0310711 10.7595 1.96963
      CHANNELS 3 Zrotation Xrotation Yrotation
      JOINT Spine1
      {
        OFFSET 13.1342 3.43533 0.764692
        CHANNELS 3 Zrotation Xrotation Yrotation
        JOINT Neck
        {
          OFFSET 29.8703 7.82586 -0.130764
          CHANNELS 3 Zrotation Xrotation Yrotation
          JOINT Head
          {
            OFFSET 9.52751 0.295786 -0.907742
            CHANNELS 3 Zrotation Xrotation Yrotation
            End Site
            {
              OFFSET 16.4037 0.713936 2.7358
            }
          }
        }
        JOINT LeftShoulder
        {
          OFFSET 27.5574 4.95586 2.47156
          CHANNELS 3 Zrotation Xrotation Yrotation
          JOINT LeftArm
          {
            OFFSET 1.20734 -0.998971 20.1238
            CHANNELS 3 Zrotation Xrotation Yrotation
            JOINT LeftForeArm
            {
              OFFSET 26.8049 -0.0536703 -0.155908
              CHANNELS 3 Zrotation Xrotation Yrotation
              JOINT LeftHand
              {
                OFFSET 26.6817 0 0.320147
                CHANNELS 3 Zrotation Xrotation Yrotation
                End Site
                {
                  OFFSET 18.6119 0 0.382219
                }
              }
            }
          }
        }
        JOINT RightShoulder
        {
          OFFSET 27.5927 4.71444 -2.65209
          CHANNELS 3 Zrotation Xrotation Yrotation
          JOINT RightArm
          {
            OFFSET 2.83739 -1.17114 -18.7564
            CHANNELS 3 Zrotation Xrotation Yrotation
            JOINT RightForeArm
            {
              OFFSET 28.839 -0.0548439 1.22491
              CHANNELS 3 Zrotation Xrotation Yrotation
              JOINT RightHand
              {
                OFFSET 26.5114 0 -0.101894
                CHANNELS 3 Zrotation Xrotation Yrotation
                End Site
                {
                  OFFSET 18.2168 0 0
                }
              }
            }
          }
        }
      }
    }
  }
  JOINT LeftUpLeg
  {
    OFFSET -4.76168 -1.9167 -10.2353
    CHANNELS 3 Zrotation Xrotation Yrotation
    JOINT LeftLeg
    {
      OFFSET 2.55951 -42.0585 -8.02213
      CHANNELS 3 Zrotation Xrotation Yrotation
      JOINT LeftFoot
      {
        OFFSET 3.16357 -42.5282 -3.95426
        CHANNELS 3 Zrotation Xrotation Yrotation
        JOINT LeftToeBase
        {
          OFFSET 0.346054 -6.02161 12.8035
          CHANNELS 3 Zrotation Xrotation Yrotation
          End Site
          {
            OFFSET 0.134235 -1.35082 5.13018
          }
        }
      }
    }
  }
  JOINT RightUpLeg
  {
    OFFSET -4.94151 -1.41743 10.6446
    CHANNELS 3 Zrotation Xrotation Yrotation
    JOINT RightLeg
    {
      OFFSET -2.56294 -42.0364 -7.94377
      CHANNELS 3 Zrotation Xrotation Yrotation
      JOINT RightFoot
      {
        OFFSET -3.0952 -42.555 -4.02241
        CHANNELS 3 Zrotation Xrotation Yrotation
        JOINT RightToeBase
        {
          OFFSET -0.0828122 -6.13587 12.8035
          CHANNELS 3 Zrotation Xrotation Yrotation
          End Site
          {
            OFFSET -0.131328 -1.35082 5.13018
          }
        }
      }
    }
  }
}
MOTION
Frames:	11
Frame Time:	0.0333333
-77.2598 98.3783 -105.891 61.8569 -42.9539 -20.5722 -70.1915 0 88.8779 61.8945 69.0384 25.5619 6.45385 20.3914 1.74529 -154.956 21.0192 176.6 -158.845 60.2285 -175.67 -0.289634 -15.4895 -35.9404 -69.4902 45.1139 -87.6778 8.12748 15.4663 -28.7091 0.420957 0.000575333 0.35866 -1.9386 5.93603 47.075 -61.8799 -34.1886 95.9589 6.22125 -13.7815 26.6788 0.58676 0.000330984 0.0646652 -52.26 -1.16592 99.0337 -2.11373 23.2 -13.3838 5.56709 -8.62652 -1.06796 -0.928544 1.75109 0.555861 -53.9805 1.20146 81.7974 1.39259 18.6507 5.42669 -5.42126 -7.7213 1.08601 0.991624 2.1096 -6.94646 
-77.3286 98.363 -105.89 61.8803 -42.986 -20.5673 -70.1915 0 88.8779 62.1088 69.157 25.1526 6.24653 20.391 1.99208 -155.078 20.9459 176.603 -158.55 60.1212 -176.029 -0.28477 -15.4735 -35.9243 -69.4682 45.129 -87.6301 8.18407 15.355 -28.8648 0.420957 0.000575333 0.35866 -1.90526 5.87203 46.8861 -61.8167 -34.4201 96.0087 6.21066 -13.423 26.8252 0.58676 0.000330984 0.0646652 -52.174 -1.07845 99.0854 -2.12503 23.4164 -13.5683 5.0727 -8.84322 -1.04887 -1.02567 1.93862 0.604204 -54.0807 1.29663 81.8877 1.38433 18.3832 5.04617 -6.07911 -7.20312 1.11371 0.959697 0.790778 -6.27674 
-77.268 98.3602 -105.875 61.9075 -43.1159 -20.6425 -70.1915 0 88.8779 61.663 69.0941 25.9725 6.68634 20.5835 1.32522 -155.178 20.7253 176.102 -158.176 59.8699 -176.423 -0.281347 -15.4822 -35.8134 -70.0014 45.0323 -87.2497 8.65088 16.0536 -29.0485 0.420957 0.000575333 0.35866 -1.88347 5.8208 46.8114 -63.2494 -35.0133 95.3429 6.63334 -14.2019 26.9283 0.58676 0.000330984 0.0646652 -52.374 -1.20094 99.0613 -2.09813 23.1892 -13.4626 5.47519 -8.5301 -1.05941 -0.82665 1.37488 0.896017 -54.207 1.14548 81.8086 1.50983 18.2302 4.41671 -7.00172 -7.05953 1.17333 0.620527 0.616603 -4.20979 
-77.3094 98.3476 -105.897 61.8544 -43.1483 -20.7098 -70.1915 0 88.8779 61.6455 69.0897 25.9711 6.64353 20.5539 1.43789 -155.272 20.6827 176.614 -158.674 59.8834 -175.68 -0.239675 -15.3365 -35.7117 -70.3147 45.139 -87.2288 9.10014 16.8526 -29.1391 0.420957 0.000575333 0.35866 -1.86404 5.77054 46.7704 -62.4965 -34.6112 95.8481 6.1588 -13.6227 26.6753 0.58676 0.000330984 0.0646652 -52.3112 -1.17247 99.0899 -2.14469 23.2492 -13.3326 5.41946 -8.64325 -1.06016 -0.913333 1.63779 0.729978 -54.1073 1.16114 81.9076 1.43726 18.2806 3.15772 -7.29472 -7.02306 1.19298 0.264609 0.0865844 -1.73643 
-77.3251 98.3692 -105.915 61.8571 -43.0278 -20.6221 -70.1915 0 88.8779 61.6838 69.0674 25.9685 6.70637 20.4987 1.55152 -156.103 20.6469 177.021 -159.432 59.8962 -175.602 -0.244604 -15.3284 -35.8573 -70.5824 45.0604 -87.155 9.16427 17.0171 -29.1161 0.420957 0.000575333 0.35866 -1.84133 5.78675 46.3111 -61.6254 -34.7568 96.5299 5.92443 -13.0843 26.6678 0.58676 0.000330984 0.0646652 -52.2624 -1.18264 99.0333 -2.06221 23.192 -13.4911 5.20944 -8.64544 -1.04913 -0.985072 1.76183 0.796536 -53.9977 1.19562 81.9256 1.39193 18.4735 3.10312 -6.62298 -7.21349 1.15069 0.153218 0.589215 -1.39489 
-77.3289 98.378 -105.905 61.8737 -42.9456 -20.599 -70.1915 0 88.8779 61.3162 69.0084 26.1796 6.74526 20.4273 1.81007 -156.345 20.6435 177.291 -159.515 59.89 -175.752 -0.259193 -15.349 -36.0486 -70.5416 44.9969 -87.1395 9.1365 16.8452 -29.197 0.420957 0.000575333 0.35866 -1.83802 5.83162 46.0181 -61.1005 -34.8292 96.868 5.73667 -12.7019 26.6397 0.58676 0.000330984 0.0646652 -52.2833 -1.19121 99.0239 -2.07897 23.0937 -13.2974 5.38065 -8.57417 -1.05593 -0.834557 1.70098 0.22321 -53.9903 1.14877 81.9029 1.39094 18.4661 2.73547 -6.29595 -7.31269 1.13119 0.0170558 0.617174 -0.600392 
-77.3628 98.3683 -105.916 61.9944 -43.0748 -20.5769 -70.1915 0 88.8779 61.9894 69.1161 25.4996 6.68757 20.4329 1.72505 -156.911 20.6043 177.357 -159.737 59.8639 -175.957 -0.198209 -15.1293 -35.9408 -70.2201 45.0215 -87.4557 9.13366 16.6368 -29.3459 0.420957 0.000575333 0.35866 -1.83452 5.81137 46.0689 -61.3129 -34.7874 96.8465 5.95534 -13.0763 26.7087 0.58676 0.000330984 0.0646652 -52.4692 -1.18441 99.0682 -2.09219 22.9915 -13.4089 4.99983 -8.72112 -1.04065 -0.933637 1.72972 0.625379 -54.1321 1.14555 81.8713 1.43697 18.4021 3.24446 -6.8971 -7.02691 1.1655 0.3096 0.265657 -2.13175 
-77.3883 98.3672 -105.941 61.9956 -43.0693 -20.6224 -70.1915 0 88.8779 61.587 69.1585 25.7827 6.87305 20.4825 1.86907 -157.358 20.7494 177.603 -160.268 60.0553 -175.797 -0.234627 -15.2302 -36.165 -70.4018 44.8361 -87.4848 9.31031 17.0521 -29.3041 0.420957 0.000575333 0.35866 -1.81761 5.78094 45.9547 -62.5725 -35.026 96.1347 6.46937 -13.8681 26.9063 0.58676 0.000330984 0.0646652 -52.4403 -1.29511 99.0068 -2.02626 22.9925 -13.5089 4.98795 -8.70106 -1.03932 -1.10892 1.88045 1.11407 -54.0101 1.08383 81.867 1.42003 18.5743 3.01478 -6.75492 -7.15644 1.15842 0.104232 0.624307 -1.13564 
-77.4538 98.3817 -105.96 62.2837 -43.0325 -20.337 -70.1915 0 88.8779 63.0037 69.2977 24.1926 6.35486 20.3178 2.16386 -157.403 20.7343 177.922 -160.708 60.0799 -175.381 -0.204451 -15.1168 -36.1411 -70.2294 44.9402 -87.5392 9.20328 16.8087 -29.3231 0.420957 0.000575333 0.35866 -1.81544 5.84596 45.5771 -60.9187 -34.9118 97.3221 5.68964 -12.9329 26.4904 0.58676 0.000330984 0.0646652 -52.5664 -1.13888 99.1035 -2.12166 23.082 -13.5887 5.00465 -8.86777 -1.04621 -1.24514 2.32879 0.785852 -54.2426 1.20213 81.8903 1.37189 18.471 3.07654 -6.6241 -7.25871 1.15166 0.165936 1.16824 -1.82856 
-77.4475 98.3764 -105.929 62.4925 -43.0385 -20.0318 -70.1915 0 88.8779 63.0597 69.3205 24.1897 6.54362 20.2977 2.24155 -157.625 20.8054 177.977 -160.878 60.1649 -175.411 -0.228871 -15.1802 -36.3136 -70.3922 44.8512 -87.4794 9.2586 16.8893 -29.3462 0.420957 0.000575333 0.35866 -1.78403 5.80546 45.2755 -60.9072 -35.1407 97.4419 5.76549 -12.9213 26.5751 0.58676 0.000330984 0.0646652 -52.6912 -0.961279 99.1728 -2.08064 23.17 -14.052 4.78935 -8.85403 -1.03471 -1.18859 2.06706 1.08222 -54.6157 1.38439 81.939 1.37573 18.0581 2.72319 -6.81219 -6.89622 1.15732 0.147031 0.143406 -1.0642 
-77.4819 98.3844 -105.954 62.3887 -43.0422 -20.0957 -70.1915 0 88.8779 62.9448 69.282 24.3631 6.42712 20.2861 2.26275 -157.142 20.8452 178.089 -161.151 60.2429 -174.568 -0.248415 -15.2525 -36.3326 -70.401 44.9435 -87.3737 9.16051 16.6754 -29.3594 0.420957 0.000575333 0.35866 -1.79728 5.81056 45.4733 -61.2403 -34.9569 97.0613 6.06224 -13.3866 26.6834 0.58676 0.000330984 0.0646652 -52.5713 -0.942999 99.1527 -2.06805 23.1954 -13.7334 4.96542 -8.83111 -1.04287 -1.08646 2.04764 0.653946 -54.5601 1.40872 81.9854 1.36637 17.9468 2.48215 -6.94881 -6.88663 1.16677 0.0353143 0.207074 -0.438436 
